:FULLY-SPECIFIED
:FORCE-ALL-JOINTS-BE-3DOF
:DEGREES
272
root 8.31773 15.6704 -24.8904 13.3921 65.363 13.2225
lfemur -24.7107 14.3009 -17.8612
ltibia 50.7746 -0 0
lfoot -15.3318 -19.3676 -0.325235
ltoes 46.1001 -0 0
rfemur -29.2836 -0.730443 13.3738
rtibia 48.0105 -0 0
rfoot -9.14678 -23.4176 1.11924
rtoes 47.2047 -0 0
lowerback 4.51672 -4.78645 -3.05834
upperback 2.27256 -6.38692 -1.03171
thorax 0.0972754 -3.16022 0.900846
lowerneck -5.29781 -9.87924 -3.8946
upperneck 2.95444 -13.1018 4.66343
head 2.62787 -6.49201 1.64721
lclavicle -6.18899e-15 1.72167e-14 -1.06475e-32
lhumerus -48.1222 -38.6728 111.589
lradius 61.2321 -0 0
lwrist 16.4094 0 0
lhand 12.3001 13.096 0.0316202
lfingers 7.12502 -0 0
lthumb 37.279 38.8689 -0.0435577
rclavicle -6.18899e-15 1.72167e-14 -1.06475e-32
rhumerus -54.7514 4.97204 -85.7653
rradius 66.8698 -0 0
rwrist 15.7098 0 0
rhand -24.1236 -13.9414 -0.522642
rfingers 7.12502 -0 0
rthumb 2.35676 -43.8173 -0.498605
273
root 8.38681 15.6583 -24.8576 14.0869 66.3407 14.4283
lfemur -24.1082 13.8272 -18.0848
ltibia 50.8959 -0 0
lfoot -15.2146 -20.1665 -0.317052
ltoes 46.5869 -0 0
rfemur -30.0835 -0.821379 13.7985
rtibia 48.3776 -0 0
rfoot -8.05483 -23.1211 1.0909
rtoes 46.905 -0 0
lowerback 4.6946 -4.85068 -3.25354
upperback 2.42214 -6.47992 -1.21302
thorax 0.156275 -3.20774 0.833318
lowerneck -5.11282 -10.0514 -4.04631
upperneck 2.97407 -13.338 4.82478
head 2.63394 -6.6089 1.71747
lclavicle -5.55991e-15 1.72216e-14 -1.03813e-32
lhumerus -47.8063 -38.8795 111.134
lradius 61.1767 -0 0
lwrist 16.3835 0 0
lhand 12.6069 13.1255 0.0308289
lfingers 7.12502 -0 0
lthumb 37.5695 38.8259 -0.0424678
rclavicle -5.55991e-15 1.72216e-14 -1.03813e-32
rhumerus -55.5034 5.69789 -86.7542
rradius 67.0981 -0 0
rwrist 15.7275 0 0
rhand -24.4453 -13.4749 -0.509534
rfingers 7.12502 -0 0
rthumb 2.04614 -43.3563 -0.486102
274
root 8.45588 15.6462 -24.8249 14.8631 67.3119 15.7136
lfemur -23.5051 13.3558 -18.3131
ltibia 51.0173 -0 0
lfoot -15.0976 -20.9654 -0.307235
ltoes 47.0737 -0 0
rfemur -30.884 -0.906374 14.2246
rtibia 48.7448 -0 0
rfoot -6.96305 -22.8252 1.05692
rtoes 46.6053 -0 0
lowerback 4.87272 -4.9143 -3.44896
upperback 2.57204 -6.57246 -1.39461
thorax 0.215333 -3.25519 0.765738
lowerneck -4.92727 -10.2232 -4.19867
upperneck 2.99303 -13.5742 4.9862
head 2.63988 -6.7258 1.78773
lclavicle -4.93083e-15 1.72264e-14 -1.00619e-32
lhumerus -47.4873 -39.0842 110.677
lradius 61.1212 -0 0
lwrist 16.3576 0 0
lhand 12.9136 13.155 0.0298795
lfingers 7.12502 -0 0
lthumb 37.86 38.7829 -0.0411601
rclavicle -4.93083e-15 1.72264e-14 -1.00619e-32
rhumerus -56.269 6.41064 -87.754
rradius 67.3264 -0 0
rwrist 15.7453 0 0
rhand -24.7669 -13.0084 -0.493808
rfingers 7.12502 -0 0
rthumb 1.73564 -42.8955 -0.4711
275
root 8.52496 15.6341 -24.7921 15.7307 68.2759 17.0887
lfemur -22.9012 12.8867 -18.5461
ltibia 51.1387 -0 0
lfoot -14.9807 -21.7642 -0.295787
ltoes 47.5605 -0 0
rfemur -31.6851 -0.985407 14.6517
rtibia 49.112 -0 0
rfoot -5.87148 -22.5301 1.0173
rtoes 46.3057 -0 0
lowerback 5.05107 -4.97732 -3.64459
upperback 2.72226 -6.66453 -1.57648
thorax 0.274449 -3.30257 0.698106
lowerneck -4.74116 -10.3944 -4.35168
upperneck 3.01133 -13.8105 5.14771
head 2.64567 -6.84271 1.858
lclavicle -4.30175e-15 1.72313e-14 -9.68919e-33
lhumerus -47.1653 -39.2869 110.217
lradius 61.0657 -0 0
lwrist 16.3317 0 0
lhand 13.2204 13.1846 0.0287719
lfingers 7.12502 -0 0
lthumb 38.1504 38.7399 -0.0396344
rclavicle -4.30175e-15 1.72313e-14 -9.68919e-33
rhumerus -57.0481 7.10992 -88.7647
rradius 67.5548 -0 0
rwrist 15.763 0 0
rhand -25.0884 -12.5421 -0.475464
rfingers 7.12502 -0 0
rthumb 1.42527 -42.4347 -0.453602
276
root 8.59404 15.622 -24.7593 16.7014 69.2314 18.5653
lfemur -22.2965 12.4201 -18.7836
ltibia 51.2601 -0 0
lfoot -14.8639 -22.563 -0.28271
ltoes 48.0472 -0 0
rfemur -32.4868 -1.05846 15.08
rtibia 49.4792 -0 0
rfoot -4.78013 -22.2357 0.972077
rtoes 46.006 -0 0
lowerback 5.22965 -5.03973 -3.84044
upperback 2.8728 -6.75611 -1.75862
thorax 0.333624 -3.34987 0.630423
lowerneck -4.55447 -10.5652 -4.50533
upperneck 3.02895 -14.0469 5.3093
head 2.65131 -6.95963 1.92828
lclavicle -3.67267e-15 1.72361e-14 -9.26329e-33
lhumerus -46.8403 -39.4876 109.754
lradius 61.0103 -0 0
lwrist 16.3058 0 0
lhand 13.5272 13.2141 0.0275061
lfingers 7.12502 -0 0
lthumb 38.4409 38.6969 -0.0378909
rclavicle -3.67267e-15 1.72361e-14 -9.26329e-33
rhumerus -57.8407 7.79537 -89.7865
rradius 67.7831 -0 0
rwrist 15.7807 0 0
rhand -25.4097 -12.0759 -0.454505
rfingers 7.12502 -0 0
rthumb 1.11505 -41.9741 -0.433609
277
root 8.66312 15.6099 -24.7266 17.7889 70.1771 20.1571
lfemur -21.6908 11.9559 -19.0258
ltibia 51.3814 -0 0
lfoot -14.7474 -23.3618 -0.268007
ltoes 48.534 -0 0
rfemur -33.2891 -1.12551 15.5092
rtibia 49.8464 -0 0
rfoot -3.68905 -21.9423 0.921254
rtoes 45.7063 -0 0
lowerback 5.40846 -5.10153 -4.03651
upperback 3.02367 -6.84723 -1.94104
thorax 0.392856 -3.39711 0.562689
lowerneck -4.36722 -10.7354 -4.65964
upperneck 3.04591 -14.2833 5.47099
head 2.65682 -7.07655 1.99856
lclavicle -3.04359e-15 1.7241e-14 -8.78416e-33
lhumerus -46.5122 -39.6863 109.288
lradius 60.9548 -0 0
lwrist 16.2799 0 0
lhand 13.834 13.2436 0.0260822
lfingers 7.12502 -0 0
lthumb 38.7313 38.654 -0.0359296
rclavicle -3.04359e-15 1.7241e-14 -8.78416e-33
rhumerus -58.6469 8.46662 -90.8195
rradius 68.0114 -0 0
rwrist 15.7985 0 0
rhand -25.7309 -11.6098 -0.430933
rfingers 7.12502 -0 0
rthumb 0.805006 -41.5135 -0.411123
278
root 8.73219 15.5978 -24.6938 19.0092 71.1115 21.8802
lfemur -21.0842 11.4943 -19.2725
ltibia 51.5028 -0 0
lfoot -14.631 -24.1605 -0.251681
ltoes 49.0208 -0 0
rfemur -34.0919 -1.18654 15.9394
rtibia 50.2136 -0 0
rfoot -2.59826 -21.6498 0.864854
rtoes 45.4067 -0 0
lowerback 5.58751 -5.16272 -4.23278
upperback 3.17485 -6.93786 -2.12374
thorax 0.452147 -3.44428 0.494903
lowerneck -4.1794 -10.9052 -4.8146
upperneck 3.06219 -14.5197 5.63278
head 2.66218 -7.19347 2.06885
lclavicle -2.4145e-15 1.72458e-14 -8.25178e-33
lhumerus -46.1812 -39.8829 108.819
lradius 60.8993 -0 0
lwrist 16.254 0 0
lhand 14.1407 13.2732 0.0245003
lfingers 7.12502 -0 0
lthumb 39.0218 38.611 -0.0337506
rclavicle -2.4145e-15 1.72458e-14 -8.25178e-33
rhumerus -59.4667 9.12329 -91.8638
rradius 68.2397 -0 0
rwrist 15.8162 0 0
rhand -26.0518 -11.1439 -0.40475
rfingers 7.12502 -0 0
rthumb 0.49515 -41.0531 -0.386146
279
root 8.80127 15.5857 -24.6611 20.3807 72.0328 23.7532
lfemur -20.4766 11.0353 -19.5239
ltibia 51.6242 -0 0
lfoot -14.5149 -24.9593 -0.233734
ltoes 49.5076 -0 0
rfemur -34.8951 -1.24154 16.3703
rtibia 50.5808 -0 0
rfoot -1.50779 -21.3586 0.802899
rtoes 45.107 -0 0
lowerback 5.76677 -5.2233 -4.42927
upperback 3.32636 -7.02802 -2.30671
thorax 0.511495 -3.49137 0.427066
lowerneck -3.991 -11.0744 -4.97021
upperneck 3.07781 -14.7562 5.79467
head 2.66739 -7.31041 2.13914
lclavicle -1.78542e-15 1.72507e-14 -7.66617e-33
lhumerus -45.847 -40.0774 108.348
lradius 60.8439 -0 0
lwrist 16.2281 0 0
lhand 14.4475 13.3027 0.0227604
lfingers 7.12502 -0 0
lthumb 39.3122 38.5681 -0.0313539
rclavicle -1.78542e-15 1.72507e-14 -7.66617e-33
rhumerus -60.3 9.76501 -92.9195
rradius 68.4681 -0 0
rwrist 15.834 0 0
rhand -26.3725 -10.6781 -0.375958
rfingers 7.12502 -0 0
rthumb 0.185506 -40.5928 -0.35868
280
root 8.87034 15.5735 -24.6283 21.9251 72.9388 25.7979
lfemur -19.8678 10.5789 -19.7797
ltibia 51.7455 -0 0
lfoot -14.3991 -25.7579 -0.214171
ltoes 49.9944 -0 0
rfemur -35.6987 -1.2905 16.802
rtibia 50.948 -0 0
rfoot -0.417659 -21.0685 0.735413
rtoes 44.8073 -0 0
lowerback 5.94627 -5.28327 -4.62596
upperback 3.47818 -7.11769 -2.48996
thorax 0.570901 -3.5384 0.359178
lowerneck -3.80203 -11.2432 -5.12648
upperneck 3.09275 -14.9928 5.95667
head 2.67247 -7.42735 2.20944
lclavicle -1.15634e-15 1.72555e-14 -7.02732e-33
lhumerus -45.5099 -40.2698 107.874
lradius 60.7884 -0 0
lwrist 16.2022 0 0
lhand 14.7543 13.3322 0.0208625
lfingers 7.12502 -0 0
lthumb 39.6027 38.5252 -0.0287395
rclavicle -1.15634e-15 1.72555e-14 -7.02732e-33
rhumerus -61.1469 10.3914 -93.9867
rradius 68.6964 -0 0
rwrist 15.8517 0 0
rhand -26.6929 -10.2125 -0.344561
rfingers 7.12502 -0 0
rthumb -0.123906 -40.1327 -0.328728
281
root 8.93942 15.5614 -24.5956 23.6677 73.8267 28.0396
lfemur -19.2578 10.1252 -20.0402
ltibia 51.8669 -0 0
lfoot -14.2835 -26.5566 -0.192995
ltoes 50.4812 -0 0
rfemur -36.5027 -1.33339 17.2344
rtibia 51.3152 -0 0
rfoot 0.672097 -20.7798 0.662423
rtoes 44.5077 -0 0
lowerback 6.12598 -5.34262 -4.82286
upperback 3.63032 -7.20689 -2.67348
thorax 0.630365 -3.58535 0.291239
lowerneck -3.61247 -11.4114 -5.28341
upperneck 3.10701 -15.2293 6.11879
head 2.6774 -7.5443 2.27975
lclavicle -5.27263e-16 1.72604e-14 -6.33524e-33
lhumerus -45.1696 -40.4601 107.397
lradius 60.7329 -0 0
lwrist 16.1763 0 0
lhand 15.061 13.3617 0.0188066
lfingers 7.12502 -0 0
lthumb 39.8931 38.4823 -0.0259076
rclavicle -5.27263e-16 1.72604e-14 -6.33524e-33
rhumerus -62.0072 11.002 -95.0654
rradius 68.9247 -0 0
rwrist 15.8695 0 0
rhand -27.0131 -9.74705 -0.310561
rfingers 7.12502 -0 0
rthumb -0.433067 -39.6728 -0.296293
282
root 9.00849 15.5493 -24.5628 25.6378 74.6935 30.5076
lfemur -18.6466 9.67427 -20.3051
ltibia 51.9883 -0 0
lfoot -14.1683 -27.3552 -0.17021
ltoes 50.968 -0 0
rfemur -37.307 -1.37021 17.6673
rtibia 51.6824 -0 0
rfoot 1.76145 -20.4925 0.583956
rtoes 44.208 -0 0
lowerback 6.30592 -5.40136 -5.01997
upperback 3.78278 -7.29559 -2.85728
thorax 0.689887 -3.63224 0.22325
lowerneck -3.42233 -11.5791 -5.44101
upperneck 3.12059 -15.4659 6.28103
head 2.68219 -7.66125 2.35008
lclavicle 1.01817e-16 1.72652e-14 -5.58992e-33
lhumerus -44.8264 -40.6482 106.917
lradius 60.6775 -0 0
lwrist 16.1504 0 0
lhand 15.3678 13.3911 0.016593
lfingers 7.12502 -0 0
lthumb 40.1836 38.4394 -0.0228583
rclavicle 1.01817e-16 1.72652e-14 -5.58992e-33
rhumerus -62.881 11.5966 -96.1556
rradius 69.153 -0 0
rwrist 15.8872 0 0
rhand -27.333 -9.28181 -0.273962
rfingers 7.12502 -0 0
rthumb -0.741956 -39.213 -0.261378
